<?xml version="1.0" encoding="UTF-8"?><svg id="Capa_2" xmlns="http://www.w3.org/2000/svg" viewBox="0 0 51.26 27.83"><defs><style>.cls-1{fill:none;stroke:#f2f2f2;stroke-miterlimit:10;stroke-width:2px;}</style></defs><g id="Capa_1-2"><path class="cls-1" d="M5.35,25.92c-1.15-4.07-2.3-8.13-3.46-12.2,4.64,4.1,9.29,8.2,13.93,12.3,3.27-7.81,6.54-15.62,9.81-23.43,3.27,7.81,6.54,15.62,9.81,23.43,4.64-4.1,9.29-8.2,13.93-12.3-1.15,4.07-2.3,8.13-3.46,12.2-3.37-3.37-6.74-6.74-10.12-10.12-3.39,3.39-6.78,6.78-10.17,10.17-3.39-3.39-6.78-6.78-10.17-10.17-3.37,3.37-6.74,6.74-10.12,10.12Z"/></g></svg>