<?xml version="1.0" encoding="UTF-8"?><svg id="Capa_2" xmlns="http://www.w3.org/2000/svg" viewBox="0 0 246.13 180.77"><defs><style>.cls-1{fill:none;stroke:#515851;stroke-miterlimit:10;stroke-width:2px;}.cls-2{fill:#c6c2a9;stroke-width:0px;}.cls-3{letter-spacing:-.04em;}.cls-4{fill:#515851;font-family:TheaterBrillionDEMO-Regular, 'Theater Brillion DEMO';font-size:126.48px;}.cls-5{letter-spacing:0em;}</style></defs><g id="Capa_1-2"><rect class="cls-2" width="246.13" height="180.77"/><path class="cls-1" d="M102.39,43.29c-1.15-4.07-2.3-8.13-3.46-12.2,4.64,4.1,9.29,8.2,13.93,12.3,3.27-7.81,6.54-15.62,9.81-23.43,3.27,7.81,6.54,15.62,9.81,23.43,4.64-4.1,9.29-8.2,13.93-12.3-1.15,4.07-2.3,8.13-3.46,12.2-3.37-3.37-6.74-6.74-10.12-10.12-3.39,3.39-6.78,6.78-10.17,10.17-3.39-3.39-6.78-6.78-10.17-10.17-3.37,3.37-6.74,6.74-10.12,10.12Z"/><text class="cls-4" transform="translate(92.2 131.59)"><tspan class="cls-3" x="0" y="0">V</tspan><tspan class="cls-5" x="53.25" y="0">g</tspan></text></g></svg>